<svg width="24" height="24" viewBox="0 0 24 24" fill="none" xmlns="http://www.w3.org/2000/svg">
<path d="M10.83 0.449438L0.45 10.9064C0.18 11.176 0 11.5655 0 11.985C0 12.4045 0.18 12.794 0.45 13.0637L10.83 23.5506C11.43 24.1498 12.36 24.1498 12.96 23.5506C13.56 22.9513 13.56 21.9925 12.96 21.4232L5.13 13.5431H22.5C23.34 13.5431 24 12.8539 24 12.0449C24 11.236 23.34 10.5468 22.5 10.5468H5.13L12.96 2.57678C13.53 1.97753 13.56 1.01873 12.96 0.449438C12.39 -0.149813 11.43 -0.149813 10.86 0.449438H10.83Z" fill="#252525"/>
</svg>
