<svg width="25" height="24" viewBox="0 0 25 24" fill="none" xmlns="http://www.w3.org/2000/svg">
<path d="M1.84998 2.7034C1.10441 2.7034 0.5 2.09822 0.5 1.3517C0.5 0.605176 1.10441 0 1.84998 0H23.15C23.8956 0 24.5 0.605176 24.5 1.3517C24.5 2.09822 23.8956 2.7034 23.15 2.7034L23.1404 2.70336L1.84998 2.7034Z" fill="#252525"/>
<path d="M1.84998 23.9997C1.10441 23.9997 0.5 23.3945 0.5 22.648C0.5 21.9015 1.10441 21.2963 1.84998 21.2963H23.15C23.8956 21.2963 24.5 21.9015 24.5 22.648C24.5 23.3945 23.8956 23.9997 23.15 23.9997L23.1404 23.9997L1.84998 23.9997Z" fill="#252525"/>
<path d="M0.5 11.9999C0.5 12.7464 1.10441 13.3516 1.84998 13.3516L23.1404 13.3515L23.15 13.3516C23.8956 13.3516 24.5 12.7464 24.5 11.9999C24.5 11.2533 23.8956 10.6482 23.15 10.6482H1.84998C1.10441 10.6482 0.5 11.2533 0.5 11.9999Z" fill="#252525"/>
</svg>
