<svg width="24" height="25" viewBox="0 0 24 25" fill="none" xmlns="http://www.w3.org/2000/svg">
<path d="M23.5519 21.4339L14.1336 12.0156L23.5519 2.59732C24.1494 1.9999 24.1494 1.0611 23.5519 0.463688C22.9545 -0.133729 22.0157 -0.133729 21.4183 0.463688L12 9.88199L2.58169 0.463688C1.98428 -0.133729 1.04548 -0.133729 0.448063 0.463688C-0.149354 1.0611 -0.149354 1.9999 0.448063 2.59732L9.86637 12.0156L0.448063 21.4339C-0.149354 22.0313 -0.149354 22.9701 0.448063 23.5676C1.04548 24.165 1.98428 24.165 2.58169 23.5676L12 14.1493L21.4183 23.5676C22.0157 24.165 22.9545 24.165 23.5519 23.5676C24.1494 22.9701 24.1494 22.0313 23.5519 21.4339Z" fill="#252525"/>
</svg>
