<svg width="24" height="15" viewBox="0 0 24 15" fill="none" xmlns="http://www.w3.org/2000/svg">
<path d="M9.12 13.6498C9.12 14.3998 8.52 14.9998 7.77 14.9998H7.35C3.3 14.9998 0 11.6998 0 7.64981C0 3.5998 3.3 0.299805 7.35 0.299805H7.77C8.52 0.299805 9.12 0.899805 9.12 1.6498C9.12 2.3998 8.52 2.9998 7.77 2.9998H7.35C4.8 2.9998 2.7 5.0998 2.7 7.64981C2.7 10.1998 4.8 12.2998 7.35 12.2998H7.77C8.52 12.2998 9.12 12.8998 9.12 13.6498ZM16.65 0.299805H16.23C15.48 0.299805 14.88 0.899805 14.88 1.6498C14.88 2.3998 15.48 2.9998 16.23 2.9998H16.65C19.2 2.9998 21.3 5.0998 21.3 7.64981C21.3 10.1998 19.2 12.2998 16.65 12.2998H16.23C15.48 12.2998 14.88 12.8998 14.88 13.6498C14.88 14.3998 15.48 14.9998 16.23 14.9998H16.65C20.7 14.9998 24 11.6998 24 7.64981C24 3.5998 20.7 0.299805 16.65 0.299805ZM5.85 7.64981C5.85 8.39981 6.45 8.99981 7.2 8.99981H16.8C17.55 8.99981 18.15 8.39981 18.15 7.64981C18.15 6.89981 17.55 6.2998 16.8 6.2998H7.2C6.45 6.2998 5.85 6.89981 5.85 7.64981Z" fill="#252525"/>
</svg>
