<svg width="24" height="24" viewBox="0 0 24 24" fill="none" xmlns="http://www.w3.org/2000/svg">
<path d="M1.35337 24C0.993664 24 0.663932 23.85 0.394151 23.61C0.0943938 23.31 -0.0255089 22.92 0.00446682 22.5L0.424126 18.75C0.484078 18.21 0.514053 17.91 0.633956 17.58C0.723883 17.28 0.873761 16.98 1.05362 16.74C1.20349 16.5 1.41332 16.29 1.80301 15.9L16.3712 1.26C18.0498 -0.42 20.9874 -0.42 22.6961 1.26C24.4346 3 24.4346 5.85 22.6961 7.59L8.12788 22.17C7.73819 22.56 7.52836 22.77 7.22861 22.95C6.95882 23.13 6.68904 23.28 6.35931 23.37C5.9996 23.49 5.69985 23.52 5.19026 23.58L1.47328 24C1.47328 24 1.38335 24 1.3234 24H1.35337ZM14.0031 7.44L3.72145 17.76C3.48165 18 3.36174 18.09 3.27182 18.21C3.15191 18.48 3.12194 18.69 3.09196 18.96L2.85216 21.09L4.8905 20.85C5.19026 20.82 5.43006 20.79 5.51999 20.76C5.78977 20.61 5.93965 20.46 6.14948 20.25L16.4611 9.9L13.9731 7.41L14.0031 7.44ZM15.9216 5.52L18.4095 8.01L20.7476 5.64C21.4371 4.95 21.4371 3.84 20.7476 3.15C20.0882 2.49 18.9191 2.49 18.2597 3.15L15.9216 5.52Z" fill="#252525"/>
</svg>
