<svg width="24" height="19" viewBox="0 0 24 19" fill="none" xmlns="http://www.w3.org/2000/svg">
<path d="M12 13.5227C9.54307 13.5227 7.56554 11.5125 7.56554 9.01505C7.56554 6.51758 9.54307 4.50743 12 4.50743C14.4569 4.50743 16.4345 6.51758 16.4345 9.01505C16.4345 11.5125 14.4569 13.5227 12 13.5227ZM12 6.79169C10.8015 6.79169 9.81273 7.79677 9.81273 9.01505C9.81273 10.2333 10.8015 11.2384 12 11.2384C13.1985 11.2384 14.1873 10.2333 14.1873 9.01505C14.1873 7.79677 13.1985 6.79169 12 6.79169ZM12.03 18.0303C5.88764 18.0303 1.90262 12.7003 0.464419 10.4161C0.284644 10.1115 0.134831 9.89829 0.0449438 9.50235C-0.0149813 9.19779 -0.0149813 8.80185 0.0449438 8.49728C0.134831 8.1318 0.284644 7.88814 0.434457 7.61403C1.87266 5.36022 5.85768 0.0302734 12 0.0302734C18.1423 0.0302734 22.0974 5.32977 23.5356 7.61403C23.7154 7.9186 23.8652 8.16225 23.9551 8.52774C24.015 8.8323 24.015 9.22824 23.9551 9.53281C23.8652 9.92875 23.6854 10.2029 23.5356 10.4465C22.1273 12.7308 18.1723 18.0303 12.03 18.0303ZM2.38202 9.19779C3.61049 11.147 6.99625 15.7156 12 15.7156C17.0037 15.7156 20.4195 11.147 21.618 9.19779C21.618 9.19779 21.7079 9.07596 21.7079 9.01505C21.7079 8.95413 21.618 8.8323 21.618 8.8323C20.4195 6.85261 17.0337 2.31454 12 2.31454C6.96629 2.31454 3.58052 6.88307 2.38202 8.8323C2.38202 8.8323 2.29213 8.95413 2.29213 9.01505C2.29213 9.07596 2.38202 9.19779 2.38202 9.19779Z" fill="#252525"/>
</svg>
