<svg width="24" height="24" viewBox="0 0 24 24" fill="none" xmlns="http://www.w3.org/2000/svg">
<path d="M8.00073 12C8.00073 9.79095 9.79111 7.99968 12.0002 7.99968C14.2094 7.99968 16.0007 9.79095 16.0007 12C16.0007 14.209 14.2094 16.0003 12.0002 16.0003C9.79111 16.0003 8.00073 14.209 8.00073 12ZM5.83812 12C5.83812 15.4032 8.59687 18.1619 12.0002 18.1619C15.4036 18.1619 18.1624 15.4032 18.1624 12C18.1624 8.59677 15.4036 5.83813 12.0002 5.83813C8.59687 5.83813 5.83812 8.59677 5.83812 12ZM16.9662 5.59386C16.9662 6.38869 17.6108 7.03425 18.4066 7.03425C19.2015 7.03425 19.8471 6.38869 19.8471 5.59386C19.8471 4.79903 19.2025 4.15444 18.4066 4.15444C17.6108 4.15444 16.9662 4.79903 16.9662 5.59386ZM7.15158 21.7677C5.98158 21.7144 5.34569 21.5195 4.92306 21.3548C4.36278 21.1367 3.96341 20.8769 3.54271 20.4572C3.12298 20.0375 2.86223 19.6381 2.6451 19.0779C2.48031 18.6553 2.28547 18.0194 2.23216 16.8494C2.174 15.5845 2.16236 15.2045 2.16236 12C2.16236 8.79548 2.17497 8.41648 2.23216 7.15057C2.28547 5.98061 2.48128 5.34572 2.6451 4.92213C2.8632 4.36187 3.12298 3.96252 3.54271 3.54184C3.96244 3.12213 4.36181 2.86139 4.92306 2.64426C5.34569 2.47948 5.98158 2.28465 7.15158 2.23134C8.41657 2.17318 8.79656 2.16155 12.0002 2.16155C15.2049 2.16155 15.5839 2.17415 16.8499 2.23134C18.0199 2.28465 18.6548 2.48045 19.0784 2.64426C19.6387 2.86139 20.038 3.12213 20.4587 3.54184C20.8785 3.96155 21.1383 4.36187 21.3564 4.92213C21.5211 5.34475 21.716 5.98061 21.7693 7.15057C21.8275 8.41648 21.8391 8.79548 21.8391 12C21.8391 15.2036 21.8275 15.5835 21.7693 16.8494C21.716 18.0194 21.5202 18.6553 21.3564 19.0779C21.1383 19.6381 20.8785 20.0375 20.4587 20.4572C20.039 20.8769 19.6387 21.1367 19.0784 21.3548C18.6558 21.5195 18.0199 21.7144 16.8499 21.7677C15.5849 21.8258 15.2049 21.8375 12.0002 21.8375C8.79656 21.8375 8.41657 21.8258 7.15158 21.7677ZM7.05271 0.0726979C5.77511 0.130856 4.9027 0.333441 4.13983 0.630048C3.35078 0.936349 2.68193 1.34733 2.01405 2.01422C1.34714 2.6811 0.936143 3.34992 0.62983 4.1399C0.33321 4.90275 0.130617 5.77512 0.0724567 7.05267C0.0133267 8.33215 -0.000244141 8.7412 -0.000244141 12C-0.000244141 15.2588 0.0133267 15.6679 0.0724567 16.9473C0.130617 18.2249 0.33321 19.0973 0.62983 19.8601C0.936143 20.6491 1.34618 21.3189 2.01405 21.9858C2.68096 22.6527 3.34981 23.0627 4.13983 23.37C4.90367 23.6666 5.77511 23.8691 7.05271 23.9273C8.33321 23.9855 8.74131 24 12.0002 24C15.2601 24 15.6682 23.9864 16.9478 23.9273C18.2254 23.8691 19.0978 23.6666 19.8607 23.37C20.6497 23.0627 21.3186 22.6527 21.9864 21.9858C22.6533 21.3189 23.0634 20.6491 23.3707 19.8601C23.6673 19.0973 23.8708 18.2249 23.928 16.9473C23.9862 15.6669 23.9998 15.2588 23.9998 12C23.9998 8.7412 23.9862 8.33215 23.928 7.05267C23.8699 5.77512 23.6673 4.90275 23.3707 4.1399C23.0634 3.35089 22.6533 2.68207 21.9864 2.01422C21.3195 1.34733 20.6497 0.936349 19.8616 0.630048C19.0978 0.333441 18.2254 0.129887 16.9487 0.0726979C15.6692 0.0145396 15.2601 0 12.0012 0C8.74131 0 8.33321 0.0135703 7.05271 0.0726979Z" fill="#252525"/>
</svg>
