<svg width="24" height="24" viewBox="0 0 24 24" fill="none" xmlns="http://www.w3.org/2000/svg">
<path d="M13.3073 21.508C13.3073 22.2586 12.709 22.8591 11.9612 22.8591C6.00862 22.8591 1.16281 17.9953 1.16281 12.0205C1.16281 8.89807 2.53878 6.04582 4.84204 4.00421L0.893597 2.65314C0.205611 2.38292 -0.183251 1.63233 0.0859611 0.911762C0.325261 0.221217 1.07307 -0.169092 1.79097 0.0710981L8.16232 2.29285C8.16232 2.29285 8.16232 2.29285 8.19223 2.29285C8.28197 2.32288 8.37171 2.38292 8.46144 2.44297C8.52127 2.473 8.58109 2.53304 8.64092 2.56307C8.70074 2.62311 8.73065 2.68316 8.79048 2.77323C8.8503 2.83328 8.91013 2.92335 8.94004 2.9834C8.96995 3.04345 8.96995 3.13352 8.99987 3.22359C8.99987 3.31366 9.05969 3.40373 9.05969 3.4938C9.05969 3.4938 9.05969 3.52383 9.05969 3.55385L8.96995 10.3092C8.96995 11.0598 8.37171 11.6302 7.62389 11.6302C6.87608 11.6302 6.27783 10.9997 6.30775 10.2491L6.36757 6.22596C4.84204 7.72715 3.91475 9.79878 3.91475 11.9905C3.91475 16.464 7.53416 20.1269 11.9911 20.1269C12.7389 20.1269 13.3372 20.7274 13.3372 21.478L13.3073 21.508ZM23.0288 21.3879L19.1402 20.0369C21.4135 17.9953 22.7596 15.143 22.7596 12.0506C22.7596 6.07584 17.9138 1.212 11.9612 1.212C11.2134 1.212 10.6151 1.81247 10.6151 2.56307C10.6151 3.31366 11.2134 3.91413 11.9612 3.91413C16.4181 3.91413 20.0675 7.547 20.0675 12.0506C20.0675 14.2423 19.1402 16.3139 17.6146 17.8151L17.6745 13.7319C17.6745 12.9813 17.0762 12.3808 16.3583 12.3508C15.6105 12.3508 15.0123 12.9513 15.0123 13.6718L14.9225 20.4272C14.9225 20.4272 14.9225 20.4572 14.9225 20.4872C14.9225 20.5773 14.9225 20.6674 14.9824 20.7574C14.9824 20.8475 14.9824 20.9076 15.0422 20.9976C15.0721 21.0877 15.1319 21.1477 15.1917 21.2078C15.2516 21.2678 15.2815 21.3579 15.3413 21.418C15.4011 21.478 15.461 21.508 15.5507 21.5681C15.6404 21.6281 15.7003 21.6882 15.79 21.7182C15.79 21.7182 15.79 21.7182 15.8498 21.7182L22.2212 23.94C22.2212 23.94 22.5203 24 22.6698 24C23.2382 24 23.7467 23.6397 23.9262 23.0993C24.1655 22.4087 23.8065 21.6281 23.0886 21.3879H23.0288Z" fill="#252525"/>
</svg>
