<svg width="27" height="6" viewBox="0 0 27 6" fill="none" xmlns="http://www.w3.org/2000/svg">
<path d="M5.01562 3C5.01562 4.38071 3.89634 5.5 2.51562 5.5C1.13491 5.5 0.015625 4.38071 0.015625 3C0.015625 1.61929 1.13491 0.5 2.51562 0.5C3.89634 0.5 5.01562 1.61929 5.01562 3Z" fill="#252525"/>
<path d="M15.849 3C15.849 4.38071 14.7297 5.5 13.349 5.5C11.9682 5.5 10.849 4.38071 10.849 3C10.849 1.61929 11.9682 0.5 13.349 0.5C14.7297 0.5 15.849 1.61929 15.849 3Z" fill="#252525"/>
<path d="M24.1823 5.5C25.563 5.5 26.6823 4.38071 26.6823 3C26.6823 1.61929 25.563 0.5 24.1823 0.5C22.8016 0.5 21.6823 1.61929 21.6823 3C21.6823 4.38071 22.8016 5.5 24.1823 5.5Z" fill="#252525"/>
</svg>
