<svg width="24" height="24" viewBox="0 0 24 24" fill="none" xmlns="http://www.w3.org/2000/svg">
<path d="M23.5658 21.6929L18.7449 16.8689C20.1223 15.1011 20.9607 12.9139 20.9607 10.4869C20.9607 4.70412 16.2595 0 10.4803 0C4.70119 0 0 4.73408 0 10.5169C0 16.2996 4.70119 21.0037 10.4803 21.0037C12.8759 21.0037 15.0917 20.1648 16.8584 18.7865L21.6793 23.6105C21.9488 23.8801 22.2782 24 22.6376 24C22.9969 24 23.3263 23.8801 23.5958 23.6105C24.1347 23.0712 24.1347 22.2322 23.5958 21.6929H23.5658ZM2.69495 10.5169C2.69495 6.23221 6.19838 2.72659 10.4803 2.72659C14.7623 2.72659 18.2658 6.23221 18.2658 10.5169C18.2658 14.8015 14.7623 18.3071 10.4803 18.3071C6.19838 18.3071 2.69495 14.8015 2.69495 10.5169Z" fill="#252525"/>
</svg>
