<svg width="24" height="24" viewBox="0 0 24 24" fill="none" xmlns="http://www.w3.org/2000/svg">
<path d="M16.9712 24H7.02879C4.89612 24 3.72466 24 2.67334 23.4586C1.74218 22.9774 0.991239 22.2556 0.540676 21.3233C-4.47594e-08 20.2707 0 19.0977 0 16.9624V11.9699C0 11.218 0.600751 10.6165 1.35169 10.6165C2.10263 10.6165 2.70338 11.218 2.70338 11.9699V16.9624C2.70338 18.6767 2.70338 19.6391 2.94368 20.0902C3.15394 20.5113 3.48436 20.8421 3.90488 21.0526C4.38548 21.2932 5.31665 21.2932 7.02879 21.2932H16.9712C18.6834 21.2932 19.6446 21.2932 20.0951 21.0526C20.5156 20.8421 20.8461 20.5113 21.0563 20.0902C21.2966 19.609 21.2966 18.6767 21.2966 16.9624V11.9699C21.2966 11.218 21.8974 10.6165 22.6483 10.6165C23.3993 10.6165 24 11.218 24 11.9699V16.9624C24 19.0977 24 20.2707 23.4593 21.3233C22.9787 22.2556 22.2578 23.0075 21.3267 23.4586C20.2753 24 19.1039 24 16.9712 24ZM18.2028 4.1203L12.766 0.210526C12.766 0.210526 12.7359 0.210526 12.7059 0.210526C12.6158 0.150376 12.5257 0.120301 12.4355 0.0902256C12.3755 0.0902256 12.2854 0.0300752 12.2253 0C12.1352 0 12.0451 0 11.9549 0C11.8648 0 11.7747 0 11.6846 0C11.6245 0 11.5344 0.0601504 11.4743 0.0902256C11.3842 0.120301 11.2941 0.150376 11.204 0.210526C11.204 0.210526 11.174 0.210526 11.1439 0.210526L5.73717 4.1203C5.13642 4.57143 4.98623 5.41353 5.4368 6.01504C5.70713 6.37594 6.12766 6.58647 6.54819 6.58647C6.81852 6.58647 7.08886 6.49624 7.32916 6.31579L10.6033 3.96993V14.8571C10.6033 15.609 11.204 16.2105 11.9549 16.2105C12.7059 16.2105 13.3066 15.609 13.3066 14.8571V3.93985L16.5807 6.28571C16.821 6.46617 17.0914 6.55639 17.3617 6.55639C17.7822 6.55639 18.2028 6.37594 18.4731 5.98496C18.9237 5.38346 18.7735 4.54135 18.1727 4.09023L18.2028 4.1203Z" fill="#252525"/>
</svg>
