<svg width="24" height="23" viewBox="0 0 24 23" fill="none" xmlns="http://www.w3.org/2000/svg">
<path d="M24 11.6553C24 11.6553 24 11.8355 24 11.9256C24 12.0158 23.94 12.0759 23.91 12.166C23.88 12.2561 23.85 12.3462 23.79 12.4364C23.79 12.4364 23.79 12.4664 23.79 12.4964L19.89 17.9039C19.62 18.2644 19.2 18.4747 18.78 18.4747C18.51 18.4747 18.24 18.3846 18 18.2043C17.4 17.7537 17.25 16.9125 17.7 16.3117L20.07 13.0372H8.61C7.86 13.0372 7.26 12.4364 7.26 11.6853C7.26 10.9343 7.86 10.3335 8.61 10.3335H20.07L17.7 7.05893C17.25 6.4581 17.4 5.61694 18 5.16632C18.6 4.74574 19.44 4.86591 19.89 5.46674L23.79 10.8742C23.79 10.8742 23.79 10.9042 23.79 10.9343C23.85 11.0244 23.88 11.1145 23.91 11.2047C23.91 11.2948 23.97 11.3549 24 11.445C24 11.5351 24 11.6252 24 11.7154V11.6553ZM14.01 19.2257C13.62 19.406 12.48 19.9167 10.95 19.8566C7.59 19.7064 2.73 16.7323 2.73 11.6853C2.7 7.14906 6.36 3.484 10.95 3.484C11.97 3.484 13.02 3.66425 13.95 4.08483C14.64 4.38525 15.42 4.08483 15.72 3.36384C16.02 2.67288 15.72 1.89181 15 1.59139C13.74 1.05065 12.39 0.780273 10.95 0.780273C5.01 0.780273 0 5.64699 0 11.6553C0 18.4747 6.27 22.35 10.83 22.5303C10.95 22.5303 11.07 22.5303 11.19 22.5303C13.14 22.5303 14.58 21.8994 15.09 21.6891C15.78 21.3887 16.08 20.6076 15.78 19.9167C15.48 19.2257 14.67 18.9253 14.01 19.2257Z" fill="#252525"/>
</svg>
