<svg width="24" height="24" viewBox="0 0 24 24" fill="none" xmlns="http://www.w3.org/2000/svg">
<path d="M23.9998 11.985C23.9998 18.6233 18.5998 24 11.9998 24C8.39976 24 5.00976 22.408 2.72976 19.6145C2.24976 19.0438 2.33976 18.1727 2.90976 17.7222C3.47976 17.2416 4.34976 17.3317 4.79976 17.9024C6.56976 20.0651 9.20976 21.2966 11.9998 21.2966C17.1298 21.2966 21.2998 17.1214 21.2998 11.985C21.2998 6.84856 17.1298 2.67334 11.9998 2.67334C9.20976 2.67334 6.59976 3.90488 4.79976 6.09762C4.31976 6.66834 3.47976 6.75845 2.90976 6.27785C2.33976 5.79725 2.24976 4.9562 2.72976 4.38548C5.03976 1.59199 8.39976 0 11.9998 0C18.6298 0 23.9998 5.37672 23.9998 12.015V11.985ZM10.4698 16.6108C10.0198 17.2115 10.1698 18.0526 10.7698 18.5031C11.0098 18.6834 11.2798 18.7735 11.5498 18.7735C11.9698 18.7735 12.3898 18.5932 12.6598 18.2028L16.5598 12.796C16.5598 12.796 16.5598 12.766 16.5598 12.7359C16.6198 12.6458 16.6498 12.5557 16.6798 12.4656C16.6798 12.3755 16.7398 12.3154 16.7698 12.2253C16.7698 12.1352 16.7698 12.0451 16.7698 11.9549C16.7698 11.8648 16.7698 11.7747 16.7698 11.6846C16.7698 11.5945 16.7098 11.5344 16.6798 11.4443C16.6498 11.3542 16.6198 11.2641 16.5598 11.174C16.5598 11.174 16.5598 11.1439 16.5598 11.1139L12.6598 5.70713C12.2098 5.10638 11.3698 4.98623 10.7698 5.40676C10.1698 5.85732 10.0198 6.69837 10.4698 7.29912L12.8398 10.5732H1.34976C0.599756 10.5732 -0.000244141 11.174 -0.000244141 11.9249C-0.000244141 12.6758 0.599756 13.2766 1.34976 13.2766H12.8098L10.4398 16.5507L10.4698 16.6108Z" fill="#252525"/>
</svg>
