<svg width="24" height="25" viewBox="0 0 24 25" fill="none" xmlns="http://www.w3.org/2000/svg">
<path d="M23.9193 18.1191C23.7387 17.6676 23.4377 17.4268 23.0765 17.2161C23.0163 17.186 22.9561 17.1559 22.8959 17.1258C22.7755 17.0656 22.6851 17.0054 22.5647 16.9452C21.4209 16.3432 20.548 15.5907 19.946 14.6876C19.7654 14.4468 19.6149 14.1759 19.4945 13.8749C19.4343 13.7244 19.4343 13.6341 19.4945 13.5739C19.5246 13.5137 19.5848 13.4535 19.645 13.4234C19.8256 13.303 20.0363 13.1525 20.1868 13.0622C20.4276 12.9117 20.6082 12.7913 20.7587 12.701C21.2102 12.3699 21.5413 12.0388 21.752 11.6475C22.053 11.1056 22.0831 10.4735 21.8423 9.90161C21.5413 9.08889 20.7587 8.57718 19.8557 8.57718C19.6751 8.57718 19.4644 8.57718 19.2838 8.63738C19.2236 8.63738 19.1935 8.63738 19.1333 8.66748C19.1333 8.12566 19.1333 7.52365 19.0731 6.95173C18.8925 4.93498 18.2001 3.88146 17.4476 3.03863C16.966 2.49682 16.4242 2.07541 15.7921 1.7142C14.6783 1.08208 13.4141 0.750977 12.0295 0.750977C10.6448 0.750977 9.38061 1.08208 8.26688 1.7142C7.63476 2.07541 7.09295 2.52692 6.61134 3.03863C5.85882 3.88146 5.1665 4.93498 4.9859 6.95173C4.9257 7.52365 4.9257 8.12566 4.9257 8.66748C4.86549 8.66748 4.83539 8.66748 4.77519 8.63738C4.59459 8.60728 4.38388 8.57718 4.20328 8.57718C3.27015 8.57718 2.51763 9.08889 2.21663 9.90161C2.00592 10.4735 2.03602 11.1056 2.30693 11.6475C2.51763 12.0388 2.84874 12.3699 3.30025 12.701C3.42066 12.7913 3.60126 12.9117 3.87217 13.0622C3.99257 13.1525 4.20328 13.2729 4.38388 13.3933C4.44408 13.4234 4.50428 13.4836 4.53439 13.5438C4.56449 13.6341 4.56449 13.7244 4.53439 13.8749C4.41398 14.1458 4.26348 14.4167 4.08287 14.6575C3.48086 15.5305 2.63804 16.283 1.52431 16.885C0.952394 17.186 0.350378 17.3967 0.0794715 18.089C-0.101133 18.6007 0.01927 19.2027 0.500882 19.7145H0.440681C0.621285 19.8951 0.831991 20.0456 1.0427 20.166C1.52431 20.4369 2.03602 20.6175 2.54773 20.768C2.66814 20.768 2.75844 20.8282 2.84874 20.9185C3.02935 21.069 2.99925 21.3098 3.24005 21.6409C3.36046 21.8215 3.51096 21.972 3.69156 22.0924C4.20328 22.4235 4.74509 22.4536 5.34711 22.4837C5.88892 22.4837 6.49094 22.5138 7.18325 22.7546C7.48426 22.8449 7.75517 23.0255 8.11638 23.2362C8.9592 23.748 10.0729 24.4403 11.9693 24.4403C13.8656 24.4403 15.0095 23.748 15.8523 23.2362C16.1834 23.0255 16.4844 22.8449 16.7553 22.7546C17.4476 22.5138 18.0496 22.5138 18.5914 22.4837C19.1935 22.4837 19.7353 22.4536 20.247 22.0924C20.4577 21.9419 20.6383 21.7613 20.7587 21.5506C20.9393 21.2496 20.9393 21.069 21.0898 20.9185C21.1801 20.8583 21.2704 20.8282 21.3607 20.7981C21.9025 20.6476 22.4142 20.467 22.8959 20.1961C23.1367 20.0757 23.3474 19.8951 23.528 19.6844C23.9795 19.1726 24.0999 18.6007 23.9193 18.089V18.1191ZM22.2336 19.0221C21.2102 19.5941 20.5179 19.5339 19.9761 19.865C19.5246 20.166 19.7955 20.7981 19.4644 21.0088C19.0731 21.2797 17.869 21.0088 16.3339 21.4904C15.0697 21.9118 14.2569 23.1158 11.9693 23.1158C9.68162 23.1158 8.899 21.9118 7.60466 21.4904C6.06952 20.9787 4.86549 21.2797 4.47418 21.0088C4.14308 20.768 4.41398 20.166 3.96247 19.865C3.42066 19.5339 2.75844 19.5941 1.70491 19.0221C1.0427 18.6609 1.43401 18.4502 1.64471 18.3298C5.37721 16.5238 5.97922 13.7244 6.00932 13.5438C6.03942 13.303 6.06953 13.0923 5.79862 12.8515C5.52771 12.6107 4.35378 11.8883 4.02267 11.6475C3.48086 11.2561 3.24005 10.8949 3.42066 10.4133C3.54106 10.0822 3.84207 9.96181 4.17318 9.96181C4.26348 9.96181 4.38388 9.96181 4.47418 9.99191C5.0762 10.1123 5.64811 10.4133 5.97922 10.5036C6.00932 10.5036 6.06952 10.5036 6.09963 10.5036C6.28023 10.5036 6.34043 10.4133 6.34043 10.2026C6.31033 9.5404 6.22003 8.27617 6.34043 7.10224C6.49094 5.4768 7.00265 4.66408 7.63476 3.94166C7.93577 3.61055 9.35051 2.10551 12.0295 2.10551C14.7084 2.10551 16.1533 3.58045 16.4543 3.94166C17.0864 4.66408 17.5981 5.4768 17.7486 7.10224C17.8389 8.27617 17.7486 9.5705 17.7486 10.2026C17.7486 10.4133 17.8088 10.5036 17.9894 10.5036C18.0195 10.5036 18.0797 10.5036 18.1098 10.5036C18.4409 10.4133 19.0129 10.1123 19.6149 9.99191C19.7052 9.99191 19.8256 9.96181 19.9159 9.96181C20.247 9.96181 20.5179 10.0822 20.6684 10.4133C20.849 10.8648 20.6082 11.2561 20.0664 11.6475C19.7353 11.8883 18.5613 12.6107 18.2904 12.8515C18.0195 13.0923 18.0496 13.303 18.0797 13.5438C18.0797 13.7545 18.7118 16.5539 22.4443 18.3298C22.655 18.4502 23.0464 18.6609 22.3841 19.0221H22.2336Z" fill="#252525"/>
</svg>
