<svg width="24" height="18" viewBox="0 0 24 18" fill="none" xmlns="http://www.w3.org/2000/svg">
<path d="M20.91 10.1234H22.65C23.4 10.1234 24 10.7244 24 11.4758C24 12.2271 23.4 12.8282 22.65 12.8282H20.91C20.16 12.8282 19.56 12.2271 19.56 11.4758C19.56 10.7244 20.16 10.1234 20.91 10.1234ZM18.3 7.44857C18.66 7.44857 18.99 7.32836 19.26 7.05788L20.49 5.82568C21.03 5.28471 21.03 4.44321 20.49 3.90224C19.95 3.36127 19.11 3.36127 18.57 3.90224L17.34 5.13444C16.8 5.67541 16.8 6.51691 17.34 7.05788C17.61 7.32836 17.94 7.44857 18.3 7.44857ZM12 4.8339C12.75 4.8339 13.35 4.23283 13.35 3.48149V1.76843C13.35 1.01709 12.75 0.416016 12 0.416016C11.25 0.416016 10.65 1.01709 10.65 1.76843V3.51154C10.65 4.26288 11.25 4.86396 12 4.86396V4.8339ZM4.74 7.02782C5.01 7.29831 5.34 7.41852 5.7 7.41852C6.06 7.41852 6.39 7.29831 6.66 7.02782C7.17 6.48686 7.17 5.64535 6.66 5.10439L5.43 3.87219C4.89 3.36127 4.05 3.33122 3.51 3.87219C3 4.41315 3 5.25466 3.51 5.79562L4.74 7.02782ZM1.35 12.7981H3.09C3.84 12.7981 4.44 12.1971 4.44 11.4457C4.44 10.6944 3.84 10.0933 3.09 10.0933H1.35C0.6 10.0933 0 10.6944 0 11.4457C0 12.1971 0.6 12.7981 1.35 12.7981ZM24 15.8636C24 16.6149 23.4 17.216 22.65 17.216H1.35C0.6 17.216 0 16.6149 0 15.8636C0 15.1123 0.6 14.5112 1.35 14.5112H6.3C6.03 13.82 5.88 13.0987 5.88 12.3473C5.88 8.98131 8.64 6.24643 12 6.24643C15.36 6.24643 18.12 8.98131 18.12 12.3473C18.12 13.0987 17.97 13.82 17.7 14.5112H22.65C23.4 14.5112 24 15.1123 24 15.8636ZM9.42 14.5112H14.55C15.06 13.9101 15.39 13.1588 15.39 12.3473C15.39 10.484 13.86 8.95126 11.97 8.95126C10.08 8.95126 8.55 10.484 8.55 12.3473C8.55 13.1588 8.88 13.8801 9.42 14.5112Z" fill="#252525"/>
</svg>
