<svg width="20" height="24" viewBox="0 0 20 24" fill="none" xmlns="http://www.w3.org/2000/svg">
<path d="M18.18 24C17.91 24 17.61 23.91 17.4 23.73L9.78 18.3L2.16 23.73C1.74 24.03 1.2 24.06 0.75 23.85C0.3 23.61 0 23.16 0 22.65V7.02C0 4.89 0 3.72 0.54 2.67C1.02 1.74 1.74 0.99 2.67 0.54C3.72 0 5.01 0 7.14 0H12.36C14.49 0 15.78 0 16.83 0.54C17.76 1.02 18.48 1.74 18.96 2.67C19.5 3.72 19.5 4.89 19.5 7.02V22.65C19.5 23.16 19.23 23.61 18.75 23.85C18.54 23.94 18.36 24 18.12 24H18.18ZM9.78 15.3C10.05 15.3 10.35 15.39 10.56 15.57L16.83 20.01V7.02C16.83 5.31 16.83 4.35 16.59 3.9C16.38 3.48 16.05 3.15 15.63 2.94C15.15 2.7 14.1 2.7 12.39 2.7H7.17C5.46 2.7 4.38 2.7 3.93 2.94C3.51 3.15 3.18 3.48 2.97 3.9C2.73 4.38 2.73 5.31 2.73 7.02V19.98L9 15.54C9.24 15.36 9.51 15.27 9.78 15.27V15.3Z" fill="#252525"/>
</svg>
