<svg width="19" height="24" viewBox="0 0 19 24" fill="none" xmlns="http://www.w3.org/2000/svg">
<path d="M3.90627 6.343H0.970385V23.9971H3.90627V6.343Z" fill="#252525"/>
<path d="M0.015625 3.09846V4.67301H4.76556V3.09846H3.47663C2.91969 3.09846 2.54574 3.01099 2.35479 2.83604C2.16384 2.66109 2.06836 2.47818 2.06836 2.28733C2.06836 2.08057 2.13997 1.91357 2.28318 1.78633C2.44231 1.64319 2.67304 1.57162 2.97538 1.57162C3.13451 1.57162 3.28568 1.58753 3.42889 1.61934C3.58802 1.65115 3.74715 1.69886 3.90627 1.76248L4.503 0.378779C4.28022 0.251543 4.02562 0.156116 3.73919 0.0924965C3.45276 0.028879 3.15838 -0.00292969 2.85604 -0.00292969C2.13997 -0.00292969 1.55915 0.195877 1.1136 0.593491C0.668045 0.991106 0.445267 1.508 0.445267 2.14419C0.445267 2.31914 0.469136 2.49409 0.516874 2.66904C0.564612 2.82808 0.636219 2.97123 0.731695 3.09846H0.015625Z" fill="#252525"/>
<path d="M17.1563 12.3072H14.2205V23.9971H17.1563V12.3072Z" fill="#252525"/>
<path d="M13.2657 9.06268V10.6372H18.0156V9.06268H16.7267C16.1698 9.06268 15.7958 8.9752 15.6049 8.80025C15.4139 8.6253 15.3184 8.4424 15.3184 8.25154C15.3184 8.04478 15.39 7.87778 15.5332 7.75055C15.6924 7.60741 15.9231 7.53584 16.2255 7.53584C16.3846 7.53584 16.5357 7.55174 16.679 7.58355C16.8381 7.61536 16.9972 7.66307 17.1563 7.72669L17.7531 6.34299C17.5303 6.21576 17.2757 6.12033 16.9893 6.05671C16.7028 5.99309 16.4084 5.96128 16.1061 5.96128C15.39 5.96128 14.8092 6.16009 14.3637 6.55771C13.9181 6.95532 13.6953 7.47222 13.6953 8.1084C13.6953 8.28335 13.7192 8.4583 13.7669 8.63325C13.8147 8.7923 13.8863 8.93544 13.9818 9.06268H13.2657Z" fill="#252525"/>
</svg>
