<svg width="21" height="24" viewBox="0 0 21 24" fill="none" xmlns="http://www.w3.org/2000/svg">
<path d="M16.3418 11.1237C16.2363 11.0737 16.1295 11.0262 16.0214 10.9812C15.8333 7.5675 13.9364 5.61375 10.7505 5.59375C10.7365 5.59375 10.7212 5.59375 10.7072 5.59375C8.80149 5.59375 7.2174 6.39375 6.24228 7.84875L7.99419 9.03C8.72267 7.94375 9.8656 7.71125 10.7085 7.71125C10.7187 7.71125 10.7276 7.71125 10.7377 7.71125C11.7866 7.7175 12.5774 8.0175 13.0897 8.6025C13.4622 9.02875 13.7114 9.61625 13.8347 10.3588C12.9054 10.2038 11.8997 10.155 10.8242 10.2163C7.79586 10.3875 5.84944 12.1238 5.97911 14.5375C6.04522 15.7613 6.66564 16.815 7.72594 17.5025C8.62223 18.0837 9.77534 18.3687 10.9755 18.3037C12.5596 18.2188 13.8017 17.6238 14.6687 16.5375C15.3273 15.7125 15.743 14.6438 15.9274 13.2963C16.6825 13.7438 17.2419 14.3337 17.5509 15.0425C18.0759 16.2463 18.1064 18.2262 16.4639 19.84C15.0247 21.2537 13.2944 21.865 10.6805 21.8838C7.7806 21.8625 5.58754 20.9487 4.1611 19.1663C2.82619 17.4975 2.13585 15.0863 2.11042 12.0013C2.13585 8.91625 2.82619 6.505 4.1611 4.83625C5.58754 3.05375 7.7806 2.14 10.6805 2.11875C13.6008 2.14 15.8333 3.05875 17.3131 4.85C18.039 5.72875 18.5857 6.8325 18.9468 8.12L21 7.58125C20.5627 5.99625 19.8749 4.63 18.9379 3.4975C17.041 1.20125 14.2644 0.025 10.6882 0H10.6742C7.10425 0.02375 4.35943 1.205 2.51598 3.51C0.874682 5.56125 0.0279695 8.415 0 11.9913V12V12.0087C0.0279695 15.5863 0.874682 18.44 2.51598 20.49C4.35943 22.795 7.10425 23.975 10.6742 24H10.6882C13.8614 23.9788 16.0977 23.1612 17.9412 21.3512C20.3516 18.9825 20.2792 16.015 19.4846 14.1925C18.915 12.8863 17.828 11.825 16.3418 11.1237ZM10.8623 16.1887C9.53505 16.2625 8.15565 15.6763 8.08827 14.4213C8.03741 13.4913 8.76208 12.4525 10.9437 12.3287C11.1942 12.315 11.4382 12.3075 11.6798 12.3075C12.4731 12.3075 13.2143 12.3837 13.8881 12.5275C13.6364 15.615 12.1616 16.1163 10.8623 16.1863V16.1887Z" fill="#252525"/>
</svg>
