<svg width="20" height="24" viewBox="0 0 20 24" fill="none" xmlns="http://www.w3.org/2000/svg">
<path d="M19.6364 10.2889V6.09957C17.8227 6.09957 16.4386 5.57591 15.5455 4.55808C14.6287 3.39647 14.1152 1.92542 14.0932 0.398279V0.0958821L10.4318 0V17.0154C10.3062 17.7578 9.97308 18.4406 9.47737 18.9717C8.98166 19.5028 8.34725 19.8565 7.65978 19.9853C6.97231 20.114 6.26488 20.0114 5.63301 19.6914C5.00114 19.3714 4.47524 18.8494 4.12631 18.1958C3.77738 17.5423 3.62222 16.7887 3.68178 16.0367C3.74134 15.2847 4.01274 14.5706 4.45936 13.9908C4.90598 13.411 5.50631 12.9934 6.17929 12.7943C6.85228 12.5953 7.56552 12.6244 8.22273 12.8777V8.82114C7.83954 8.75322 7.45193 8.71869 7.06364 8.71788C5.66658 8.71788 4.3009 9.16602 3.13929 10.0056C1.97768 10.8452 1.07232 12.0386 0.53769 13.4348C0.00306048 14.8311 -0.136823 16.3674 0.135729 17.8496C0.408281 19.3319 1.08103 20.6934 2.06889 21.762C3.05676 22.8306 4.31538 23.5583 5.68559 23.8532C7.0558 24.148 8.47606 23.9967 9.76677 23.4184C11.0575 22.84 12.1607 21.8606 12.9368 20.6041C13.713 19.3475 14.1273 17.8702 14.1273 16.3589C14.1265 16.0458 14.1083 15.733 14.0727 15.4222V8.67363C15.7376 9.79836 17.6746 10.3607 19.6364 10.2889Z" fill="#252525"/>
</svg>
