<svg width="24" height="18" viewBox="0 0 24 18" fill="none" xmlns="http://www.w3.org/2000/svg">
<path fill-rule="evenodd" clip-rule="evenodd" d="M21.3761 0.674467C22.4084 0.952649 23.2225 1.77083 23.4979 2.80992C23.9998 4.69447 23.9998 8.62447 23.9998 8.62447C23.9998 8.62447 23.9998 12.5558 23.4979 14.439C23.2225 15.4781 22.4084 16.2963 21.3761 16.5745C19.5052 17.079 11.9998 17.079 11.9998 17.079C11.9998 17.079 4.49567 17.079 2.62339 16.5745C1.59112 16.2963 0.777029 15.4781 0.501574 14.439C-0.000244141 12.5545 -0.000244141 8.62447 -0.000244141 8.62447C-0.000244141 8.62447 -0.000244141 4.69447 0.501574 2.80992C0.777029 1.77083 1.59112 0.952649 2.62339 0.674467C4.4943 0.169922 11.9998 0.169922 11.9998 0.169922C11.9998 0.169922 19.5052 0.169922 21.3761 0.674467ZM15.8179 8.62448L9.54521 12.1931V5.05584L15.8179 8.62448Z" fill="#252525"/>
</svg>
